<svg width="300" height="95" version="1.1" viewBox="0 0 79.375 25.135" xmlns="http://www.w3.org/2000/svg">
<g transform="translate(0 -271.86)">
<text x="-3.7781222" y="230.88286" fill="#000000" font-family="'Lovers Quarrel'" font-size="16.933px" letter-spacing="0px" stroke-width=".26458px" word-spacing="0px" style="line-height:6.61458302px" xml:space="preserve"><tspan x="-3.7781222" y="236.64142" font-family="'Lovers Quarrel'" stroke-width=".26458px"/></text>
<g transform="matrix(1.2297 0 0 1.2297 -10.521 -50.942)" fill="#fff" stroke-width=".21516px" aria-label="Labella">
<path d="m22.708 273.45q-0.15804-0.37535-0.15804-0.77046 0-0.39512 0.37536-0.82974 0.39511-0.45438 1.2248-0.45438 0.84949 0 2.6868 0.90876 0.21731-0.43462 0.45438-1.1458-0.13829 0-0.27658 0-1.4422 0-2.1138-0.75071-0.39511-0.45438-0.39511-0.98778 0-0.55316 0.25682-1.1063-0.7112-1.0075-0.7112-2.2324 0-2.1534 1.5409-2.9238 0.37536-0.19756 0.84949-0.19756 0.49389 0 1.047 0.55316 0.889 0.889 0.889 3.0621 0 1.3434-0.43462 3.1016 0.29633 0 0.69144-0.0988 0.61242-3.2202 1.4026-4.6228 1.0866-1.9756 2.1138-1.9756 0.889 0 1.2248 1.2446 0.13829 0.51364 0.13829 1.0668 0 1.0668-0.55316 2.1929-0.5334 1.1261-1.62 2.0743-1.0866 0.92851-2.5485 1.3631-0.33584 1.1063-0.79022 2.0348 1.1656 0.7112 2.746 1.3631 3.7338 1.5212 4.3067-0.0395 0.07902-0.1778 0.15804-0.15805 0.03951 0.0198 0.03951 0.079 0 0.0395-0.01976 0.0988-0.27658 0.77047-1.0668 1.0668-0.59267 0.23707-1.0075 0.23707-1.2248 0-2.5485-0.63218-1.3236-0.61242-2.0743-1.1261l-0.73096-0.51364q-1.0075 1.5409-2.509 1.5409-0.27658 0-0.59267-0.0593-1.5014-0.25683-1.9953-1.3631zm5.3538-6.8749q0-2.5682-1.1458-3.2399-0.33584-0.19756-0.75071-0.19756-0.39511 0-0.889 0.41487-0.889 0.79022-0.889 2.2126 0 1.1063 0.55316 2.2324 0.31609-0.5334 0.84949-0.889 0.13829-0.0988 0.15804-0.0395 0.03951 0.0395 0 0.0593-0.63218 0.51365-0.84949 1.1853 0.39511 0.61242 1.1063 0.98778 0.7112 0.3556 1.4817 0.37535 0.37536-1.7582 0.37536-3.1016zm4.4055 0.7112q0.61242-1.3434 0.61242-2.588t-0.59267-1.2446q-1.0668 0-2.6275 4.2277-0.27658 0.73096-0.55316 1.6397 1.1458-0.59267 1.8175-1.9558 0.03951-0.0988 0.09878-0.0395 0.07902 0.0593 0.03951 0.0988-0.75071 1.5212-2.0151 2.1138l-0.33584 0.98778q2.4299-0.67169 3.556-3.2399zm-7.6256 6.8947q-0.03951 0-0.07902 0-0.11853 0-0.07902-0.0988 0-0.0593 0.03951-0.0593 0.05927 0 0.09878 0 1.047 0 1.7978-1.3236-1.0668-0.47413-1.4422-0.5334-0.3556-0.079-0.61242-0.079-0.7112 0-1.0668 0.37535-0.33584 0.37536-0.33584 0.69145t0.15804 0.63218q0.47413 0.82973 1.7978 0.82973 0.92851 0 1.4817-0.43462 0.61242-0.47414 0.79022-0.86925l0.09878-0.1778q-0.29633-0.15804-0.69144-0.3556-0.84949 1.4026-1.9558 1.4026zm0.1778-5.2945q0 0.79022 0.69144 1.3434 0.7112 0.55315 1.6792 0.55315 0.09878-0.31609 0.25682-0.94826-1.62-0.0593-2.6077-1.1656-0.01975 0.11853-0.01975 0.21731zm2.509 2.2521q-0.27658 0.77047-0.51364 1.2644l0.67169 0.3556q0.19756-0.39511 0.63218-1.7582-0.27658 0.0593-0.79022 0.13829zm1.0668-1.3829q-0.31609 0.079-0.69144 0.079-0.15804 0.63217-0.25682 0.94826 0.3556-0.0395 0.77047-0.11853z"/>
<path d="m33.368 271.74q-0.57291 0.77047-0.80998 1.3434-0.23707 0.57291-0.23707 0.84949 0 0.27657 0.1778 0.27657 0.5334 0 2.1534-2.3707 0.63218-0.80998 0.63218 0.0197-0.03951 0.51365-0.03951 0.86925 0 1.5014 0.63218 1.5014 0.67169 0 1.6397-1.0866 0.05927-0.0593 0.13829 0.079-0.05927 0.13828-0.41487 0.49388-0.33584 0.33585-0.84949 0.61243-0.51364 0.27657-0.79022 0.27657-0.25682 0-0.41487-0.0593-0.73096-0.25682-0.73096-2.0151-0.79022 1.2446-1.1458 1.5804-0.55316 0.51364-0.90876 0.51364-0.01976 0-0.05927 0-0.65193-0.0988-0.65193-0.86924 0-0.79023 0.49389-1.7385 0.51364-0.96803 1.3434-1.7385 0.82973-0.77047 1.6595-0.77047 0.39511 0 0.77047 0.19756 0.33584 0.19755 0.33584 0.63217 0 0.41487-0.37536 0.47414 0.13829-0.23707 0.13829-0.43462 0-0.21732-0.19756-0.31609-0.19756-0.0988-0.3556-0.0988-0.84949 0-2.1336 1.778z"/>
<path d="m40.945 269.54q0.61242 0 0.61242 0.7112 0 0.41487-0.1778 1.2248-0.1778 0.80997-0.7112 1.6595-0.5334 0.82974-1.5409 1.2841-0.61242 0.25683-1.0273 0.25683-1.2051 0-1.2051-0.84949 0-0.37536 0.29633-0.65194 0.13829 1.2841 0.96802 1.2841 0.05927 0 0.11853 0 0.49389-0.079 1.047-0.61243 0.57291-0.55315 0.98778-1.4224 0.41487-0.889 0.41487-1.6792 0-0.67169-0.23707-0.55315-0.90876 0.45437-1.5607 1.4817-0.65193 1.0075-0.67169 2.0151 0 0.11853-0.11853 0.11853-0.11853 0-0.31609-0.19755-0.19756-0.21731-0.23707-0.23707 0-0.92851 0.47413-2.9041 0.47413-1.9953 1.3039-3.5955 0.84949-1.62 1.8965-2.2719 0.09878-0.0593 0.47413-0.15804 0.37536-0.0988 0.47413-0.0988 0.09878 0 0.11853 0.0198 0.55316 0.13829 0.82973 0.57291 0.09878 0.13829 0.09878 0.19755 0 0.0593-0.07902 0.0593t-0.13829-0.0593q-0.43462-0.3556-1.0273-0.3556-0.01976 0-0.05927 0-0.92851 0.0198-2.2126 3.0226-1.2644 3.0028-1.3631 4.287 0.27658-0.47413 1.047-1.3236 0.77047-0.84949 0.98778-1.0273 0.23707-0.19756 0.5334-0.19756z"/>
<path d="m45.445 269.9q0.37536 0.29634 0.37536 0.75071 0 0.45438-0.43462 1.047h0.39511q0.29633 0-0.01976 0.11853-0.31609 0.0988-0.59267 0.15805-0.19756 0.23706-0.45438 0.43462-0.25682 0.1778-0.23707 0.0198l0.09878-0.1778 0.19756-0.21731q-1.6002 0.11854-1.699 0.13829-0.21731 0.5334-0.21731 1.1458 0 0.61243 0.29633 0.86925 0.29633 0.23706 0.51364 0.23706 1.3631 0 2.7658-1.4817 0.1778-0.1778 0.1778 0.0197 0 0.0593-0.11853 0.19756-0.39511 0.47413-1.1063 0.90875-1.1458 0.73096-1.857 0.73096-0.69144 0-1.1063-0.37536-0.41487-0.39511-0.41487-1.1853 0-0.27658 0.07902-0.73095 0.09878-0.45438 0.45438-1.1656 0.37536-0.73096 0.889-1.2248 0.5334-0.51364 1.0273-0.51364 0.51364 0 0.98778 0.29633zm-0.47413 1.8175q0.33584-0.69144 0.33584-1.1063 0-0.41486-0.3556-0.41486t-0.86924 0.49388q-0.51364 0.49389-0.80998 1.0668 1.4619-0.0395 1.699-0.0395z"/>
<path d="m47.768 270.97q-0.45438 1.62-0.45438 2.3312t0.1778 0.84949q0.19756 0.13829 0.47413 0.13829t0.92851-0.29634q0.65193-0.29633 1.0075-0.75071t0.33584-0.21731q-0.01976 0.19756-0.11853 0.3556-0.3556 0.45438-1.1656 0.86924-0.80998 0.39512-1.2841 0.39512-0.11853 0-0.21731-0.0198-0.77047-0.1778-0.77047-1.4026 0-0.57292 0.1778-1.4026-0.19756 0.0395-0.19756-0.0988 0-0.1778 0.3556-0.55315 1.1853-4.9389 3.1214-6.5588 0.43462-0.3556 0.79022-0.3556 0.77047 0 0.77047 0.7112-0.03951 1.5804-1.4619 3.3387-0.73096 0.889-1.1853 1.3631-0.43462 0.47413-1.2841 1.3039zm3.635-5.9267q0-0.49389-0.25682-0.49389-0.80998 0-2.1731 3.0028-0.79022 1.7978-1.1458 2.9831 1.0866-1.0273 2.3312-2.7263 1.2446-1.699 1.2446-2.7658z"/>
<path d="m51.048 270.97q-0.45438 1.62-0.45438 2.3312t0.1778 0.84949q0.19756 0.13829 0.47413 0.13829 0.27658 0 0.92851-0.29634 0.65193-0.29633 1.0075-0.75071t0.33584-0.21731q-0.01976 0.19756-0.11853 0.3556-0.3556 0.45438-1.1656 0.86924-0.80998 0.39512-1.2841 0.39512-0.11853 0-0.21731-0.0198-0.77047-0.1778-0.77047-1.4026 0-0.57292 0.1778-1.4026-0.19756 0.0395-0.19756-0.0988 0-0.1778 0.3556-0.55315 1.1853-4.9389 3.1214-6.5588 0.43462-0.3556 0.79022-0.3556 0.77047 0 0.77047 0.7112-0.03951 1.5804-1.4619 3.3387-0.73096 0.889-1.1853 1.3631-0.43462 0.47413-1.2841 1.3039zm3.635-5.9267q0-0.49389-0.25682-0.49389-0.80998 0-2.1731 3.0028-0.79022 1.7978-1.1458 2.9831 1.0866-1.0273 2.3312-2.7263 1.2446-1.699 1.2446-2.7658z"/>
<path d="m54.822 271.74q-0.57291 0.77047-0.80998 1.3434t-0.23707 0.84949q0 0.27657 0.1778 0.27657 0.5334 0 2.1534-2.3707 0.63218-0.80998 0.63218 0.0197-0.03951 0.51365-0.03951 0.86925 0 1.5014 0.63218 1.5014 0.67169 0 1.6397-1.0866 0.05927-0.0593 0.13829 0.079-0.05927 0.13828-0.41487 0.49388-0.33584 0.33585-0.84949 0.61243-0.51364 0.27657-0.79022 0.27657-0.25682 0-0.41487-0.0593-0.73096-0.25682-0.73096-2.0151-0.79022 1.2446-1.1458 1.5804-0.55316 0.51364-0.90876 0.51364-0.01976 0-0.05927 0-0.65193-0.0988-0.65193-0.86924 0-0.79023 0.49389-1.7385 0.51364-0.96803 1.3434-1.7385 0.82973-0.77047 1.6595-0.77047 0.39511 0 0.77047 0.19756 0.33584 0.19755 0.33584 0.63217 0 0.41487-0.37536 0.47414 0.13829-0.23707 0.13829-0.43462 0-0.21732-0.19756-0.31609-0.19756-0.0988-0.3556-0.0988-0.84949 0-2.1336 1.778z"/>
</g>
<g transform="matrix(1.2832 0 0 1.2832 -10.025 -69.277)" fill="#fc0" stroke-width=".20619px" aria-label="Vincenzo">
<path d="m13.248 281.18q0.13091 0.39275 0.24116 0.75793 0.12402-0.36518 0.26183-0.75103l1.6605-4.4235q0.1378-0.38585 0.2136-0.61322 0.08268-0.22738 0.08268-0.35829 0-0.11714-0.0689-0.17915-0.06201-0.062-0.19292-0.0965l-0.65457-0.18604-0.02067-0.36518q0.99908 0.0276 1.6261 0.0276 0.65457 0 1.4883-0.0276l0.04134 0.3514-0.74414 0.2136q-0.25494 0.0827-0.37896 0.25494-0.12402 0.17225-0.27561 0.53743l-3.3831 8.3234-0.72347 0.0689-2.9559-8.3096q-0.17225-0.47542-0.31695-0.64079-0.1378-0.17225-0.39963-0.25493l-0.66835-0.19293-0.027561-0.3514q0.93707 0.0276 1.8741 0.0276 1.2471 0 2.4322-0.0276l0.03445 0.3514-0.67524 0.19293q-0.1378 0.0413-0.19982 0.10335-0.06201 0.062-0.06201 0.18604 0 0.1378 0.0689 0.36518 0.0689 0.22048 0.19982 0.59255z"/>
<path d="m20.903 275.73q0 0.47543-0.31006 0.77171-0.30317 0.29627-0.79926 0.29627-0.45475 0-0.75103-0.2756-0.28939-0.2825-0.28939-0.73036 0-0.48921 0.31006-0.77171 0.31006-0.28249 0.80615-0.28249 0.45475 0 0.74414 0.26182 0.28939 0.25494 0.28939 0.73036zm-3.0317 2.8112q1.695-0.25494 2.9766-0.53054l0.07579 0.0551q-0.04134 0.95084-0.04134 2.0257v2.5976q0 0.81993 0.01378 1.1438 0.01378 0.18603 0.17226 0.23426l0.86127 0.24116 0.02067 0.33073q-1.0197-0.0207-2.0257-0.0207-1.0266 0-2.0257 0.0207l-0.03445-0.33073 0.87505-0.24116q0.15848-0.0413 0.17226-0.2067 0.01378-0.26872 0.01378-0.90262v-2.2186q0-0.90261-0.02756-1.6605l-0.9853-0.25494z"/>
<path d="m22.557 278.54q1.5916-0.23426 2.9077-0.52365l0.10335 0.0551v0.73725q1.1644-0.7717 2.3013-0.7717 1.006 0 1.5779 0.55121 0.57188 0.54433 0.57188 1.5503v2.4184q0 0.86128 0.01378 1.2747 0.0069 0.18603 0.17914 0.23426l0.83371 0.24116 0.02067 0.33073q-0.9853-0.0207-1.9844-0.0207-1.0335 0-1.8604 0.0207l-0.02756-0.33073 0.68902-0.2067q0.15848-0.0482 0.17226-0.20671 0.0069-0.10335 0.0069-0.43408v-2.887q0-0.8475-0.33073-1.2127-0.33073-0.37207-0.9853-0.37207-0.57189 0-1.1782 0.33073v2.9628q0 0.86127 0.01378 1.5778 0.0069 0.18603 0.15847 0.22738l0.71658 0.22048 0.01378 0.33073q-0.85438-0.0207-1.8604-0.0207-1.0266 0-2.0188 0.0207l-0.03445-0.33073 0.88883-0.24116q0.15158-0.0413 0.15848-0.2067 0.0069-0.44097 0.0069-0.84749v-2.2669q0-0.90261-0.02756-1.6674l-0.9853-0.25494z"/>
<path d="m37.626 284.16q-1.1438 0.64768-2.3633 0.64768-1.509 0-2.4805-0.87506-0.97152-0.87505-0.97152-2.3358 0-1.5916 1.0542-2.5769 1.0611-0.9853 2.701-0.9853 1.0404 0 2.005 0.39274-0.24805 0.97152-0.43408 2.0395l-0.37896 0.062-0.53054-1.7226q-0.18604-0.0689-0.50298-0.0689-0.78548 0-1.2885 0.68902-0.50298 0.68213-0.50298 1.8328 0 1.3436 0.6339 1.9844 0.64079 0.6339 1.819 0.6339 0.565 0 1.1851-0.13091z"/>
<path d="m44.874 284.16q-1.2747 0.64768-2.6872 0.64768-1.6812 0-2.7492-0.82683-1.0611-0.83371-1.0611-2.4529 0-1.5434 1.0197-2.5149 1.0266-0.9784 2.6114-0.9784 1.3849 0 2.136 0.75103 0.75792 0.74414 0.75792 2.0602 0 0.19981-0.02067 0.41341h-4.4028q0 1.3849 0.67524 1.9913 0.68213 0.60634 2.2324 0.60634 0.75103 0 1.4332-0.13091zm-2.0671-3.5691v-0.16537q0-0.93706-0.24116-1.3436-0.23427-0.40652-0.72347-0.40652-0.58567 0-0.93707 0.56499-0.34451 0.55811-0.39963 1.3505z"/>
<path d="m45.736 278.54q1.5916-0.23426 2.9077-0.52365l0.10335 0.0551v0.73725q1.1644-0.7717 2.3013-0.7717 1.006 0 1.5779 0.55121 0.57189 0.54433 0.57189 1.5503v2.4184q0 0.86128 0.01378 1.2747 0.0069 0.18603 0.17914 0.23426l0.83371 0.24116 0.02067 0.33073q-0.9853-0.0207-1.9844-0.0207-1.0335 0-1.8604 0.0207l-0.02756-0.33073 0.68902-0.2067q0.15848-0.0482 0.17226-0.20671 0.0069-0.10335 0.0069-0.43408v-2.887q0-0.8475-0.33073-1.2127-0.33073-0.37207-0.9853-0.37207-0.57189 0-1.1782 0.33073v2.9628q0 0.86127 0.01378 1.5778 0.0069 0.18603 0.15847 0.22738l0.71658 0.22048 0.01378 0.33073q-0.85438-0.0207-1.8604-0.0207-1.0266 0-2.0188 0.0207l-0.03445-0.33073 0.88884-0.24116q0.15158-0.0413 0.15847-0.2067 0.0069-0.44097 0.0069-0.84749v-2.2669q0-0.90261-0.02756-1.6674l-0.9853-0.25494z"/>
<path d="m54.968 284.55q1.0542-1.6881 1.7088-2.7836t1.7363-2.8939h-2.1704l-0.44786 1.4056-0.33762 0.0482q-0.15158-1.0749-0.33762-2.074l0.02067-0.062q1.378 0.0207 2.5976 0.0207 1.8879 0 3.2177-0.0207l0.05512 0.0758q-0.9095 1.4676-1.6881 2.7836-0.77859 1.3091-1.7019 2.8801h2.1911l0.86127-1.4469 0.36518-0.0482q-0.12402 1.0818-0.17226 2.1497l-0.04823 0.0482q-1.1851-0.0207-2.6389-0.0207-2.0326 0-3.1626 0.0207z"/>
<path d="m64.222 281.34q0 1.254 0.37207 2.0395 0.37896 0.77859 1.2058 0.77859 0.7717 0 1.13-0.68902 0.36518-0.68902 0.36518-2.0464 0-1.2747-0.38585-2.005-0.37896-0.73725-1.192-0.73725-0.75792 0-1.13 0.66145-0.36518 0.66146-0.36518 1.9982zm5.209-0.0551q0 1.571-1.0473 2.5494-1.0473 0.97152-2.7285 0.97152-1.633 0-2.6045-0.9164-0.97152-0.92329-0.97152-2.4116 0-1.509 1.0197-2.4736 1.0197-0.97151 2.7561-0.97151 1.6468 0 2.6114 0.89572 0.96463 0.88884 0.96463 2.3564z"/>
</g>
</g>
</svg>
